<mxfile host="Electron" modified="2023-11-01T21:01:06.852Z" agent="Mozilla/5.0 (Windows NT 10.0; Win64; x64) AppleWebKit/537.36 (KHTML, like Gecko) draw.io/22.0.3 Chrome/114.0.5735.289 Electron/25.8.4 Safari/537.36" etag="z4T9IctSxBWANrPZCFmX" version="22.0.3" type="device" pages="2">
  <diagram name="Page-1" id="9J9fLC_5CnKBJHITkUvP">
    <mxGraphModel dx="2268" dy="828" grid="1" gridSize="10" guides="1" tooltips="1" connect="1" arrows="1" fold="1" page="1" pageScale="1" pageWidth="850" pageHeight="1100" math="0" shadow="0">
      <root>
        <mxCell id="0" />
        <mxCell id="1" parent="0" />
        <mxCell id="151D0IAqK2mapHKKRGAE-3" value="VPC" style="points=[[0,0],[0.25,0],[0.5,0],[0.75,0],[1,0],[1,0.25],[1,0.5],[1,0.75],[1,1],[0.75,1],[0.5,1],[0.25,1],[0,1],[0,0.75],[0,0.5],[0,0.25]];outlineConnect=0;gradientColor=none;html=1;whiteSpace=wrap;fontSize=12;fontStyle=0;container=1;pointerEvents=0;collapsible=0;recursiveResize=0;shape=mxgraph.aws4.group;grIcon=mxgraph.aws4.group_vpc;strokeColor=#248814;fillColor=none;verticalAlign=top;align=left;spacingLeft=30;fontColor=#AAB7B8;dashed=0;" parent="1" vertex="1">
          <mxGeometry x="-215.25" y="90" width="790" height="860" as="geometry" />
        </mxCell>
        <mxCell id="151D0IAqK2mapHKKRGAE-4" value="Public subnet" style="points=[[0,0],[0.25,0],[0.5,0],[0.75,0],[1,0],[1,0.25],[1,0.5],[1,0.75],[1,1],[0.75,1],[0.5,1],[0.25,1],[0,1],[0,0.75],[0,0.5],[0,0.25]];outlineConnect=0;gradientColor=none;html=1;whiteSpace=wrap;fontSize=12;fontStyle=0;container=1;pointerEvents=0;collapsible=0;recursiveResize=0;shape=mxgraph.aws4.group;grIcon=mxgraph.aws4.group_security_group;grStroke=0;strokeColor=#248814;fillColor=#E9F3E6;verticalAlign=top;align=left;spacingLeft=30;fontColor=#248814;dashed=0;" parent="151D0IAqK2mapHKKRGAE-3" vertex="1">
          <mxGeometry x="20" y="60" width="330" height="490" as="geometry" />
        </mxCell>
        <mxCell id="151D0IAqK2mapHKKRGAE-7" value="" style="rounded=1;arcSize=10;dashed=1;strokeColor=#F59D56;fillColor=none;gradientColor=none;dashPattern=8 4;strokeWidth=2;" parent="151D0IAqK2mapHKKRGAE-4" vertex="1">
          <mxGeometry x="-24.75" y="-4.75" width="374.75" height="514.75" as="geometry" />
        </mxCell>
        <mxCell id="151D0IAqK2mapHKKRGAE-9" value="Private subnet" style="points=[[0,0],[0.25,0],[0.5,0],[0.75,0],[1,0],[1,0.25],[1,0.5],[1,0.75],[1,1],[0.75,1],[0.5,1],[0.25,1],[0,1],[0,0.75],[0,0.5],[0,0.25]];outlineConnect=0;gradientColor=none;html=1;whiteSpace=wrap;fontSize=12;fontStyle=0;container=1;pointerEvents=0;collapsible=0;recursiveResize=0;shape=mxgraph.aws4.group;grIcon=mxgraph.aws4.group_security_group;grStroke=0;strokeColor=#147EBA;fillColor=#E6F2F8;verticalAlign=top;align=left;spacingLeft=30;fontColor=#147EBA;dashed=0;" parent="151D0IAqK2mapHKKRGAE-4" vertex="1">
          <mxGeometry x="5.25" y="260" width="284.75" height="230" as="geometry" />
        </mxCell>
        <mxCell id="151D0IAqK2mapHKKRGAE-12" value="" style="outlineConnect=0;dashed=0;verticalLabelPosition=bottom;verticalAlign=top;align=center;html=1;shape=mxgraph.aws3.ec2;fillColor=#F58534;gradientColor=none;" parent="151D0IAqK2mapHKKRGAE-4" vertex="1">
          <mxGeometry x="55.25" y="307" width="76.5" height="93" as="geometry" />
        </mxCell>
        <mxCell id="151D0IAqK2mapHKKRGAE-16" value="" style="outlineConnect=0;dashed=0;verticalLabelPosition=bottom;verticalAlign=top;align=center;html=1;shape=mxgraph.aws3.vpc_nat_gateway;fillColor=#F58536;gradientColor=none;" parent="151D0IAqK2mapHKKRGAE-4" vertex="1">
          <mxGeometry x="115.25" y="70" width="69" height="72" as="geometry" />
        </mxCell>
        <mxCell id="151D0IAqK2mapHKKRGAE-6" value="Public subnet" style="points=[[0,0],[0.25,0],[0.5,0],[0.75,0],[1,0],[1,0.25],[1,0.5],[1,0.75],[1,1],[0.75,1],[0.5,1],[0.25,1],[0,1],[0,0.75],[0,0.5],[0,0.25]];outlineConnect=0;gradientColor=none;html=1;whiteSpace=wrap;fontSize=12;fontStyle=0;container=1;pointerEvents=0;collapsible=0;recursiveResize=0;shape=mxgraph.aws4.group;grIcon=mxgraph.aws4.group_security_group;grStroke=0;strokeColor=#248814;fillColor=#E9F3E6;verticalAlign=top;align=left;spacingLeft=30;fontColor=#248814;dashed=0;" parent="151D0IAqK2mapHKKRGAE-3" vertex="1">
          <mxGeometry x="465.25" y="70" width="194.75" height="270" as="geometry" />
        </mxCell>
        <mxCell id="151D0IAqK2mapHKKRGAE-11" value="" style="sketch=0;points=[[0,0,0],[0.25,0,0],[0.5,0,0],[0.75,0,0],[1,0,0],[0,1,0],[0.25,1,0],[0.5,1,0],[0.75,1,0],[1,1,0],[0,0.25,0],[0,0.5,0],[0,0.75,0],[1,0.25,0],[1,0.5,0],[1,0.75,0]];outlineConnect=0;fontColor=#232F3E;fillColor=#ED7100;strokeColor=#ffffff;dashed=0;verticalLabelPosition=bottom;verticalAlign=top;align=center;html=1;fontSize=12;fontStyle=0;aspect=fixed;shape=mxgraph.aws4.resourceIcon;resIcon=mxgraph.aws4.elastic_load_balancing;" parent="151D0IAqK2mapHKKRGAE-3" vertex="1">
          <mxGeometry x="365.25" y="150" width="78" height="78" as="geometry" />
        </mxCell>
        <mxCell id="151D0IAqK2mapHKKRGAE-8" value="" style="rounded=1;arcSize=10;dashed=1;strokeColor=#F59D56;fillColor=none;gradientColor=none;dashPattern=8 4;strokeWidth=2;" parent="1" vertex="1">
          <mxGeometry x="220" y="130" width="330" height="530" as="geometry" />
        </mxCell>
        <mxCell id="151D0IAqK2mapHKKRGAE-10" value="Private subnet" style="points=[[0,0],[0.25,0],[0.5,0],[0.75,0],[1,0],[1,0.25],[1,0.5],[1,0.75],[1,1],[0.75,1],[0.5,1],[0.25,1],[0,1],[0,0.75],[0,0.5],[0,0.25]];outlineConnect=0;gradientColor=none;html=1;whiteSpace=wrap;fontSize=12;fontStyle=0;container=1;pointerEvents=0;collapsible=0;recursiveResize=0;shape=mxgraph.aws4.group;grIcon=mxgraph.aws4.group_security_group;grStroke=0;strokeColor=#147EBA;fillColor=#E6F2F8;verticalAlign=top;align=left;spacingLeft=30;fontColor=#147EBA;dashed=0;" parent="1" vertex="1">
          <mxGeometry x="260" y="455" width="220" height="175" as="geometry" />
        </mxCell>
        <mxCell id="151D0IAqK2mapHKKRGAE-13" value="" style="outlineConnect=0;dashed=0;verticalLabelPosition=bottom;verticalAlign=top;align=center;html=1;shape=mxgraph.aws3.ec2;fillColor=#F58534;gradientColor=none;" parent="1" vertex="1">
          <mxGeometry x="290" y="490" width="76.5" height="93" as="geometry" />
        </mxCell>
        <mxCell id="151D0IAqK2mapHKKRGAE-14" value="" style="outlineConnect=0;dashed=0;verticalLabelPosition=bottom;verticalAlign=top;align=center;html=1;shape=mxgraph.aws3.vpc_nat_gateway;fillColor=#F58536;gradientColor=none;" parent="1" vertex="1">
          <mxGeometry x="330" y="250" width="69" height="72" as="geometry" />
        </mxCell>
        <mxCell id="151D0IAqK2mapHKKRGAE-18" value="" style="outlineConnect=0;dashed=0;verticalLabelPosition=bottom;verticalAlign=top;align=center;html=1;shape=mxgraph.aws3.internet_gateway;fillColor=#F58534;gradientColor=none;" parent="1" vertex="1">
          <mxGeometry x="170" y="40" width="69" height="72" as="geometry" />
        </mxCell>
      </root>
    </mxGraphModel>
  </diagram>
  <diagram id="IApME3ssUIfmeNPWr5hL" name="Page-2">
    <mxGraphModel dx="1418" dy="828" grid="1" gridSize="10" guides="1" tooltips="1" connect="1" arrows="1" fold="1" page="1" pageScale="1" pageWidth="850" pageHeight="1100" math="0" shadow="0">
      <root>
        <mxCell id="0" />
        <mxCell id="1" parent="0" />
        <mxCell id="s5H5xmo7DMvzONDISwHR-1" value="" style="sketch=0;outlineConnect=0;fontColor=#232F3E;gradientColor=none;fillColor=#C925D1;strokeColor=none;dashed=0;verticalLabelPosition=bottom;verticalAlign=top;align=center;html=1;fontSize=12;fontStyle=0;aspect=fixed;pointerEvents=1;shape=mxgraph.aws4.rds_proxy;" vertex="1" parent="1">
          <mxGeometry x="310" y="360" width="78" height="78" as="geometry" />
        </mxCell>
        <mxCell id="s5H5xmo7DMvzONDISwHR-2" value="" style="outlineConnect=0;dashed=0;verticalLabelPosition=bottom;verticalAlign=top;align=center;html=1;shape=mxgraph.aws3.dynamo_db;fillColor=#2E73B8;gradientColor=none;" vertex="1" parent="1">
          <mxGeometry x="560" y="360" width="72" height="81" as="geometry" />
        </mxCell>
        <mxCell id="s5H5xmo7DMvzONDISwHR-3" style="edgeStyle=orthogonalEdgeStyle;rounded=0;orthogonalLoop=1;jettySize=auto;html=1;entryX=0;entryY=0.5;entryDx=0;entryDy=0;entryPerimeter=0;" edge="1" parent="1" source="s5H5xmo7DMvzONDISwHR-1" target="s5H5xmo7DMvzONDISwHR-2">
          <mxGeometry relative="1" as="geometry" />
        </mxCell>
        <mxCell id="s5H5xmo7DMvzONDISwHR-5" style="edgeStyle=orthogonalEdgeStyle;rounded=0;orthogonalLoop=1;jettySize=auto;html=1;" edge="1" parent="1" source="s5H5xmo7DMvzONDISwHR-4" target="s5H5xmo7DMvzONDISwHR-1">
          <mxGeometry relative="1" as="geometry" />
        </mxCell>
        <mxCell id="s5H5xmo7DMvzONDISwHR-4" value="" style="sketch=0;outlineConnect=0;fontColor=#232F3E;gradientColor=none;fillColor=#ED7100;strokeColor=none;dashed=0;verticalLabelPosition=bottom;verticalAlign=top;align=center;html=1;fontSize=12;fontStyle=0;aspect=fixed;pointerEvents=1;shape=mxgraph.aws4.ec2_aws_microservice_extractor_for_net;" vertex="1" parent="1">
          <mxGeometry x="90" y="376.5" width="48" height="48" as="geometry" />
        </mxCell>
        <mxCell id="s5H5xmo7DMvzONDISwHR-9" style="edgeStyle=orthogonalEdgeStyle;rounded=0;orthogonalLoop=1;jettySize=auto;html=1;" edge="1" parent="1" source="s5H5xmo7DMvzONDISwHR-6" target="s5H5xmo7DMvzONDISwHR-1">
          <mxGeometry relative="1" as="geometry" />
        </mxCell>
        <mxCell id="s5H5xmo7DMvzONDISwHR-6" value="" style="sketch=0;outlineConnect=0;fontColor=#232F3E;gradientColor=none;fillColor=#ED7100;strokeColor=none;dashed=0;verticalLabelPosition=bottom;verticalAlign=top;align=center;html=1;fontSize=12;fontStyle=0;aspect=fixed;pointerEvents=1;shape=mxgraph.aws4.ec2_aws_microservice_extractor_for_net;" vertex="1" parent="1">
          <mxGeometry x="90" y="310" width="48" height="48" as="geometry" />
        </mxCell>
        <mxCell id="s5H5xmo7DMvzONDISwHR-8" style="edgeStyle=orthogonalEdgeStyle;rounded=0;orthogonalLoop=1;jettySize=auto;html=1;" edge="1" parent="1" source="s5H5xmo7DMvzONDISwHR-7" target="s5H5xmo7DMvzONDISwHR-1">
          <mxGeometry relative="1" as="geometry" />
        </mxCell>
        <mxCell id="s5H5xmo7DMvzONDISwHR-7" value="" style="sketch=0;outlineConnect=0;fontColor=#232F3E;gradientColor=none;fillColor=#ED7100;strokeColor=none;dashed=0;verticalLabelPosition=bottom;verticalAlign=top;align=center;html=1;fontSize=12;fontStyle=0;aspect=fixed;pointerEvents=1;shape=mxgraph.aws4.ec2_aws_microservice_extractor_for_net;" vertex="1" parent="1">
          <mxGeometry x="90" y="438" width="48" height="48" as="geometry" />
        </mxCell>
        <mxCell id="s5H5xmo7DMvzONDISwHR-14" style="edgeStyle=orthogonalEdgeStyle;rounded=0;orthogonalLoop=1;jettySize=auto;html=1;" edge="1" parent="1" source="s5H5xmo7DMvzONDISwHR-10" target="s5H5xmo7DMvzONDISwHR-13">
          <mxGeometry relative="1" as="geometry" />
        </mxCell>
        <mxCell id="s5H5xmo7DMvzONDISwHR-10" value="Elastic Cahce" style="outlineConnect=0;dashed=0;verticalLabelPosition=bottom;verticalAlign=top;align=center;html=1;shape=mxgraph.aws3.elasticache;fillColor=#2E73B8;gradientColor=none;" vertex="1" parent="1">
          <mxGeometry x="320.5" y="590" width="67.5" height="81" as="geometry" />
        </mxCell>
        <mxCell id="s5H5xmo7DMvzONDISwHR-11" value="" style="sketch=0;outlineConnect=0;fontColor=#232F3E;gradientColor=none;fillColor=#ED7100;strokeColor=none;dashed=0;verticalLabelPosition=bottom;verticalAlign=top;align=center;html=1;fontSize=12;fontStyle=0;aspect=fixed;pointerEvents=1;shape=mxgraph.aws4.ec2_aws_microservice_extractor_for_net;" vertex="1" parent="1">
          <mxGeometry x="90" y="606.5" width="48" height="48" as="geometry" />
        </mxCell>
        <mxCell id="s5H5xmo7DMvzONDISwHR-12" style="edgeStyle=orthogonalEdgeStyle;rounded=0;orthogonalLoop=1;jettySize=auto;html=1;entryX=0.29;entryY=0.5;entryDx=0;entryDy=0;entryPerimeter=0;" edge="1" parent="1" source="s5H5xmo7DMvzONDISwHR-11" target="s5H5xmo7DMvzONDISwHR-10">
          <mxGeometry relative="1" as="geometry" />
        </mxCell>
        <mxCell id="s5H5xmo7DMvzONDISwHR-13" value="RDS&amp;nbsp;" style="outlineConnect=0;dashed=0;verticalLabelPosition=bottom;verticalAlign=top;align=center;html=1;shape=mxgraph.aws3.rds;fillColor=#2E73B8;gradientColor=none;" vertex="1" parent="1">
          <mxGeometry x="570" y="590" width="72" height="81" as="geometry" />
        </mxCell>
        <mxCell id="s5H5xmo7DMvzONDISwHR-15" value="" style="sketch=0;points=[[0,0,0],[0.25,0,0],[0.5,0,0],[0.75,0,0],[1,0,0],[0,1,0],[0.25,1,0],[0.5,1,0],[0.75,1,0],[1,1,0],[0,0.25,0],[0,0.5,0],[0,0.75,0],[1,0.25,0],[1,0.5,0],[1,0.75,0]];outlineConnect=0;fontColor=#232F3E;fillColor=#C925D1;strokeColor=#ffffff;dashed=0;verticalLabelPosition=bottom;verticalAlign=top;align=center;html=1;fontSize=12;fontStyle=0;aspect=fixed;shape=mxgraph.aws4.resourceIcon;resIcon=mxgraph.aws4.memorydb_for_redis;" vertex="1" parent="1">
          <mxGeometry x="557" y="760" width="78" height="78" as="geometry" />
        </mxCell>
      </root>
    </mxGraphModel>
  </diagram>
</mxfile>
